# Blender v2.93.5 OBJ File: 'miniproject.blend'
# www.blender.org
o Cube.001
v -6.885311 1.904553 -1.066999
v -6.885311 1.804553 -1.066999
v -6.085311 1.904553 -1.066999
v -6.085311 1.804553 -1.066999
v -6.885311 1.904553 0.933001
v -6.885311 1.804553 0.933001
v -6.085311 1.904553 0.933001
v -6.085311 1.804553 0.933001
vt 0.948029 0.467735
vt 0.861412 0.623646
vt 0.861412 0.467735
vt 0.763967 0.918146
vt 0.783456 0.831529
vt 0.783456 0.918146
vt 0.744478 0.987440
vt 0.763967 0.831529
vt 0.763967 0.987440
vt 0.350801 0.866176
vt 0.370290 0.779558
vt 0.370290 0.866176
vt 0.350801 0.779558
vt 0.370290 0.623647
vt 0.370290 0.779558
vt 0.948029 0.623646
vt 0.763967 0.831529
vt 0.744478 0.831529
vt 0.350801 0.779558
vt 0.350801 0.623647
vn 0.0000 1.0000 0.0000
vn 1.0000 0.0000 0.0000
vn 0.0000 0.0000 -1.0000
vn -1.0000 0.0000 0.0000
vn 0.0000 0.0000 1.0000
s off
f 5/1/1 3/2/1 1/3/1
f 3/4/2 8/5/2 4/6/2
f 1/7/3 4/8/3 2/9/3
f 5/10/4 2/11/4 6/12/4
f 7/13/5 6/14/5 8/15/5
f 5/1/1 7/16/1 3/2/1
f 3/4/2 7/17/2 8/5/2
f 1/7/3 3/18/3 4/8/3
f 5/10/4 1/19/4 2/11/4
f 7/13/5 5/20/5 6/14/5
