# Blender v2.93.5 OBJ File: 'miniproject.blend'
# www.blender.org
o Cube.030_Cube.042
v -0.093201 0.130330 0.186403
v -0.093201 0.130330 -0.186403
v -0.100000 0.129128 0.200000
v -0.100000 0.129128 -0.200000
v -0.094457 0.137433 0.186403
v -0.094457 0.137433 -0.186403
v -0.101255 0.136232 0.200000
v -0.101255 0.136232 -0.200000
v -0.005339 0.145859 0.186403
v -0.005339 0.145859 -0.186403
v -0.006595 0.152962 0.186403
v -0.006595 0.152962 -0.186403
v -0.005339 0.145859 0.186403
v -0.005339 0.145859 -0.186403
v -0.006595 0.152962 0.186403
v -0.006595 0.152962 -0.186403
v 0.110096 0.166261 0.186403
v 0.110096 0.166261 -0.186403
v 0.108841 0.173364 0.186403
v 0.108841 0.173364 -0.186403
v 0.116878 0.167459 0.186403
v 0.116878 0.167459 -0.186403
v 0.115623 0.174562 0.186403
v 0.115623 0.174562 -0.186403
v 0.128507 0.000869 0.186403
v 0.128507 0.000869 -0.186403
v 0.135289 0.002068 0.186403
v 0.135289 0.002068 -0.186403
vt 0.607607 0.500000
vt 0.625000 0.500000
vt 0.625000 0.500000
vt 0.625000 0.250000
vt 0.607607 0.500000
vt 0.607607 0.250000
vt 0.625000 0.250000
vt 0.625000 0.250000
vt 0.607607 0.250000
vt 0.625000 0.500000
vt 0.625000 0.500000
vt 0.625000 0.500000
vt 0.625000 0.500000
vt 0.625000 0.250000
vt 0.625000 0.250000
vt 0.625000 0.250000
vt 0.625000 0.250000
vt 0.625000 0.500000
vt 0.625000 0.500000
vt 0.625000 0.500000
vt 0.625000 0.500000
vt 0.625000 0.250000
vt 0.625000 0.250000
vt 0.625000 0.250000
vt 0.625000 0.500000
vt 0.625000 0.500000
vt 0.625000 0.250000
vt 0.625000 0.250000
vn -0.2292 -0.0405 -0.9725
vn 0.1277 0.8813 -0.4548
vn 0.5324 -0.4198 -0.7351
vn 0.1277 0.8813 0.4548
vn -0.2869 0.4982 -0.8182
vn -0.2869 0.4982 0.8182
vn 0.5324 -0.4198 0.7351
vn -0.0550 0.3114 0.9487
vn -0.2292 -0.0405 0.9725
vn 0.1231 -0.6963 0.7071
vn -0.1231 0.6963 0.7071
vn 0.0550 -0.3114 0.9487
vn -0.2459 -0.3285 -0.9119
vn 0.4680 0.6690 -0.5773
vn 0.7069 0.1017 -0.6999
vn -0.1231 0.6963 -0.7071
vn -0.2459 -0.3285 0.9119
vn 0.4680 0.6690 0.5773
vn 0.7069 0.1017 0.6999
vn 0.6517 -0.4878 -0.5808
vn -0.4906 -0.6555 -0.5741
vn 0.6517 -0.4878 0.5808
vn -0.4906 -0.6555 0.5741
s 1
f 4/1/1 6/2/2 2/3/3
f 5/4/4 8/5/5 7/6/6
f 1/7/7 11/8/8 5/4/4
f 3/9/9 8/5/5 4/1/1
f 3/9/9 5/4/4 7/6/6
f 10/10/10 16/11/11 14/12/10
f 5/4/4 12/13/11 6/2/2
f 2/3/3 12/13/11 10/10/10
f 2/3/3 9/14/12 1/7/7
f 13/15/12 19/16/11 15/17/8
f 9/14/12 14/12/10 13/15/12
f 11/8/8 13/15/12 15/17/8
f 12/13/11 15/17/8 16/11/11
f 18/18/13 24/19/14 22/20/15
f 15/17/8 20/21/16 16/11/11
f 14/12/10 20/21/16 18/18/13
f 14/12/10 17/22/17 13/15/12
f 22/20/15 23/23/18 21/24/19
f 21/24/19 28/25/20 22/20/15
f 17/22/17 23/23/18 19/16/11
f 19/16/11 24/19/14 20/21/16
f 26/26/21 27/27/22 25/28/23
f 22/20/15 26/26/21 18/18/13
f 18/18/13 25/28/23 17/22/17
f 21/24/19 25/28/23 27/27/22
f 4/1/1 8/5/5 6/2/2
f 5/4/4 6/2/2 8/5/5
f 1/7/7 9/14/12 11/8/8
f 3/9/9 7/6/6 8/5/5
f 3/9/9 1/7/7 5/4/4
f 10/10/10 12/13/11 16/11/11
f 5/4/4 11/8/8 12/13/11
f 2/3/3 6/2/2 12/13/11
f 2/3/3 10/10/10 9/14/12
f 13/15/12 17/22/17 19/16/11
f 9/14/12 10/10/10 14/12/10
f 11/8/8 9/14/12 13/15/12
f 12/13/11 11/8/8 15/17/8
f 18/18/13 20/21/16 24/19/14
f 15/17/8 19/16/11 20/21/16
f 14/12/10 16/11/11 20/21/16
f 14/12/10 18/18/13 17/22/17
f 22/20/15 24/19/14 23/23/18
f 21/24/19 27/27/22 28/25/20
f 17/22/17 21/24/19 23/23/18
f 19/16/11 23/23/18 24/19/14
f 26/26/21 28/25/20 27/27/22
f 22/20/15 28/25/20 26/26/21
f 18/18/13 26/26/21 25/28/23
f 21/24/19 17/22/17 25/28/23
